<?xml version="1.0" encoding="utf-8"?>
<!-- Generator: Adobe Illustrator 16.0.0, SVG Export Plug-In . SVG Version: 6.00 Build 0)  -->
<!DOCTYPE svg PUBLIC "-//W3C//DTD SVG 1.1//EN" "http://www.w3.org/Graphics/SVG/1.1/DTD/svg11.dtd">
<svg version="1.1" id="Layer_1" xmlns="http://www.w3.org/2000/svg" xmlns:xlink="http://www.w3.org/1999/xlink" x="0px" y="0px"
	 width="960px" height="650px" viewBox="0 0 960 650" enable-background="new 0 0 960 650" xml:space="preserve">
<g>
	<path fill="#FFFFFF" d="M291.645,285.51l-6.061-19.554l-6.061,19.554h-9.834l-11.264-30.817h10.063l6.346,21.326l6.175-21.326
		h9.435l6.346,21.326l6.232-21.326h9.662l-11.263,30.817H291.645z"/>
	<path fill="#FFFFFF" d="M346.302,270.073c0,9.491-6.746,15.78-16.81,15.78c-10.119,0-16.866-6.29-16.866-15.78
		c0-9.491,6.747-15.723,16.866-15.723C339.556,254.35,346.302,260.582,346.302,270.073z M322.574,270.187
		c0,4.803,2.802,8.004,6.918,8.004c4.06,0,6.861-3.202,6.861-8.004c0-4.746-2.802-8.004-6.861-8.004
		C325.376,262.183,322.574,265.441,322.574,270.187z"/>
	<path fill="#FFFFFF" d="M361.508,259.896c2.116-3.602,5.604-5.603,10.006-5.66v8.919c-5.718-0.515-9.491,2.173-10.006,6.518v15.837
		h-9.891v-30.817h9.891V259.896z"/>
	<path fill="#FFFFFF" d="M376.314,285.51v-42.424h9.892v42.424H376.314z"/>
	<path fill="#FFFFFF" d="M425.428,285.51h-9.892v-4.06c-2.173,2.859-5.317,4.46-9.263,4.46c-8.69,0-14.407-6.404-14.407-15.952
		c0-9.434,5.66-15.666,14.179-15.666c4.06,0,7.318,1.601,9.491,4.459v-15.666h9.892V285.51z M415.536,270.187
		c0-4.746-2.744-8.004-6.861-8.004c-4.116,0-6.86,3.259-6.918,8.004c0.058,4.746,2.802,8.062,6.918,8.062
		C412.792,278.249,415.536,274.933,415.536,270.187z"/>
	<path fill="#FFFFFF" d="M433.086,261.096v-15.609h7.433v15.609H433.086z"/>
	<path fill="#FFFFFF" d="M471.622,257.723l-3.374,6.404c-3.716-2.001-7.146-3.087-9.72-3.087c-1.772,0-3.03,0.686-3.03,2.115
		c0,4.231,16.238,2.173,16.181,12.922c0,6.346-5.546,9.834-12.979,9.834c-5.146,0-10.12-1.487-13.836-4.345l3.145-6.29
		c3.487,2.458,7.489,3.831,10.92,3.831c1.944,0,3.374-0.687,3.374-2.116c0-4.517-15.952-2.173-15.895-12.979
		c0-6.347,5.374-9.777,12.521-9.777C463.389,254.235,467.849,255.493,471.622,257.723z"/>
	<path fill="#FFFFFF" d="M510.383,283.852c-2.229,1.315-5.26,2.116-8.233,2.116c-5.946,0-10.234-3.374-10.234-9.777v-13.608h-4.288
		v-6.46h4.288v-8.576h9.834v8.519h8.062v6.518h-8.062v12.064c0,2.401,1.029,3.431,2.859,3.374c1.029,0,2.344-0.4,3.83-1.029
		L510.383,283.852z"/>
	<path fill="#FFFFFF" d="M525.247,259.896c2.116-3.602,5.604-5.603,10.006-5.66v8.919c-5.718-0.515-9.491,2.173-10.006,6.518v15.837
		h-9.891v-30.817h9.891V259.896z"/>
	<path fill="#FFFFFF" d="M569.784,285.51h-9.892v-5.088c-2.115,3.659-5.546,5.489-10.005,5.489c-6.689,0-11.035-4.574-11.035-11.778
		v-19.439h9.892v16.638c0,3.659,2.001,5.889,5.146,5.889c3.773-0.057,6.003-3.145,6.003-7.318v-15.208h9.892V285.51z"/>
	<path fill="#FFFFFF" d="M601.4,257.723l-3.374,6.404c-3.716-2.001-7.146-3.087-9.72-3.087c-1.771,0-3.03,0.686-3.03,2.115
		c0,4.231,16.238,2.173,16.181,12.922c0,6.346-5.546,9.834-12.979,9.834c-5.146,0-10.12-1.487-13.836-4.345l3.145-6.29
		c3.487,2.458,7.489,3.831,10.92,3.831c1.944,0,3.374-0.687,3.374-2.116c0-4.517-15.952-2.173-15.895-12.979
		c0-6.347,5.374-9.777,12.521-9.777C593.167,254.235,597.627,255.493,601.4,257.723z"/>
	<path fill="#FFFFFF" d="M626.897,283.852c-2.229,1.315-5.26,2.116-8.233,2.116c-5.946,0-10.234-3.374-10.234-9.777v-13.608h-4.288
		v-6.46h4.288v-8.576h9.834v8.519h8.062v6.518h-8.062v12.064c0,2.401,1.029,3.431,2.859,3.374c1.029,0,2.344-0.4,3.83-1.029
		L626.897,283.852z"/>
	<path fill="#FFFFFF" d="M660.745,272.76h-21.67c0.973,3.659,3.603,5.717,7.262,5.717c2.687,0,5.317-1.086,7.375-3.145l5.203,5.089
		c-3.145,3.43-7.775,5.432-13.436,5.432c-10.063,0-16.353-6.29-16.353-15.666c0-9.548,6.518-15.837,16.066-15.837
		C656.057,254.35,661.431,261.497,660.745,272.76z M651.254,267.442c0-3.773-2.401-6.232-5.946-6.232
		c-3.431,0-5.774,2.516-6.403,6.232H651.254z"/>
	<path fill="#FFFFFF" d="M697.163,285.51h-9.892v-4.06c-2.173,2.859-5.317,4.46-9.263,4.46c-8.69,0-14.407-6.404-14.407-15.952
		c0-9.434,5.66-15.666,14.179-15.666c4.06,0,7.318,1.601,9.491,4.459v-15.666h9.892V285.51z M687.271,270.187
		c0-4.746-2.744-8.004-6.861-8.004c-4.116,0-6.86,3.259-6.918,8.004c0.058,4.746,2.802,8.062,6.918,8.062
		C684.527,278.249,687.271,274.933,687.271,270.187z"/>
	<path fill="#FFFFFF" d="M150.776,329.932h-21.67c0.973,3.659,3.603,5.718,7.262,5.718c2.687,0,5.317-1.087,7.375-3.145l5.203,5.088
		c-3.145,3.431-7.775,5.432-13.436,5.432c-10.063,0-16.353-6.289-16.353-15.666c0-9.548,6.518-15.837,16.066-15.837
		C146.088,311.521,151.462,318.668,150.776,329.932z M141.285,324.614c0-3.773-2.401-6.232-5.946-6.232
		c-3.431,0-5.774,2.516-6.403,6.232H141.285z"/>
	<path fill="#FFFFFF" d="M187.595,323.242v19.439h-9.835v-16.695c0-3.602-2.115-5.832-5.432-5.832c-3.602,0-5.889,2.573-6.289,6.232
		v16.295h-9.891v-30.817h9.891v5.032c2.173-3.602,5.718-5.432,10.292-5.489C183.135,311.407,187.595,316.038,187.595,323.242z"/>
	<path fill="#FFFFFF" d="M201.543,342.682l-11.606-30.817h10.178l6.632,21.784l6.689-21.784h9.834l-11.606,30.817H201.543z"/>
	<path fill="#FFFFFF" d="M236.99,303.002c0,3.087-2.173,5.26-5.203,5.26s-5.202-2.173-5.202-5.26c0-3.03,2.172-5.203,5.202-5.203
		S236.99,299.972,236.99,303.002z M226.813,342.682v-30.817h9.834v30.817H226.813z"/>
	<path fill="#FFFFFF" d="M254.483,317.067c2.116-3.602,5.604-5.603,10.006-5.66v8.919c-5.718-0.515-9.491,2.173-10.006,6.519v15.837
		h-9.891v-30.817h9.891V317.067z"/>
	<path fill="#FFFFFF" d="M300.107,327.244c0,9.491-6.746,15.78-16.81,15.78c-10.119,0-16.866-6.289-16.866-15.78
		c0-9.491,6.747-15.723,16.866-15.723C293.361,311.521,300.107,317.753,300.107,327.244z M276.38,327.358
		c0,4.803,2.802,8.005,6.918,8.005c4.06,0,6.861-3.202,6.861-8.005c0-4.745-2.802-8.004-6.861-8.004
		C279.182,319.354,276.38,322.613,276.38,327.358z"/>
	<path fill="#FFFFFF" d="M336.869,323.242v19.439h-9.835v-16.695c0-3.602-2.115-5.832-5.431-5.832c-3.603,0-5.89,2.573-6.29,6.232
		v16.295h-9.891v-30.817h9.891v5.032c2.173-3.602,5.718-5.432,10.292-5.489C332.409,311.407,336.869,316.038,336.869,323.242z"/>
	<path fill="#FFFFFF" d="M396.157,323.242v19.439h-9.834v-16.695c0-3.659-2.059-5.889-5.317-5.889
		c-3.717,0.114-6.004,3.145-6.004,7.318v15.266h-9.891v-16.695c0-3.659-2.002-5.889-5.261-5.889
		c-3.773,0.114-6.117,3.145-6.117,7.318v15.266h-9.834v-30.817h9.834v5.089c2.115-3.659,5.66-5.489,10.177-5.546
		c5.031,0,8.748,2.63,10.292,6.975c2.001-4.574,5.774-6.918,10.862-6.975C391.812,311.407,396.157,316.038,396.157,323.242z"/>
	<path fill="#FFFFFF" d="M432.231,329.932h-21.67c0.973,3.659,3.603,5.718,7.262,5.718c2.687,0,5.317-1.087,7.375-3.145l5.203,5.088
		c-3.145,3.431-7.775,5.432-13.436,5.432c-10.063,0-16.353-6.289-16.353-15.666c0-9.548,6.518-15.837,16.066-15.837
		C427.543,311.521,432.917,318.668,432.231,329.932z M422.74,324.614c0-3.773-2.401-6.232-5.946-6.232
		c-3.431,0-5.774,2.516-6.403,6.232H422.74z"/>
	<path fill="#FFFFFF" d="M469.05,323.242v19.439h-9.835v-16.695c0-3.602-2.115-5.832-5.432-5.832c-3.602,0-5.889,2.573-6.289,6.232
		v16.295h-9.891v-30.817h9.891v5.032c2.173-3.602,5.718-5.432,10.292-5.489C464.59,311.407,469.05,316.038,469.05,323.242z"/>
	<path fill="#FFFFFF" d="M495.977,341.023c-2.229,1.315-5.26,2.115-8.233,2.115c-5.946,0-10.234-3.373-10.234-9.776v-13.608h-4.288
		v-6.46h4.288v-8.576h9.834v8.519h8.062v6.518h-8.062v12.064c0,2.401,1.029,3.431,2.859,3.373c1.029,0,2.344-0.399,3.83-1.028
		L495.977,341.023z"/>
	<path fill="#FFFFFF" d="M528.223,322.556v20.125h-9.663v-3.545c-2.001,2.63-5.26,4.002-9.434,4.002
		c-6.575,0-10.577-4.002-10.577-9.662c0-5.832,4.174-9.262,11.835-9.319h8.119V323.7c0-3.03-2.002-4.86-6.004-4.86
		c-2.572,0-5.946,0.915-9.205,2.573l-2.802-6.518c4.803-2.229,9.148-3.487,14.294-3.487
		C523.248,311.407,528.165,315.581,528.223,322.556z M518.503,332.219v-2.744h-6.232c-2.973,0-4.46,1.029-4.46,3.315
		c0,2.23,1.602,3.659,4.346,3.659C515.243,336.449,517.874,334.734,518.503,332.219z"/>
	<path fill="#FFFFFF" d="M535.538,342.682v-42.424h9.892v42.424H535.538z"/>
	<path fill="#FFFFFF" d="M553.89,342.682v-42.424h9.892v42.424H553.89z"/>
	<path fill="#FFFFFF" d="M588.252,345.884c-2.287,5.603-6.175,8.347-11.893,8.347c-3.431,0-6.232-1.028-8.977-3.145l4.116-6.746
		c1.43,1.144,2.631,1.658,4.06,1.658c1.772,0,3.03-0.801,3.831-2.459l0.743-1.544l-12.808-30.131h10.178l7.547,20.469l6.689-20.469
		h9.834L588.252,345.884z"/>
	<path fill="#FFFFFF" d="M629.986,311.007v2.23h6.975v6.518h-6.975v22.927h-9.777v-22.927h-4.174v-6.518h4.174v-2.859
		c0-6.804,5.146-10.577,11.778-10.577c3.03,0,6.289,0.8,8.633,2.172l-3.487,6.918c-1.086-0.801-2.458-1.258-3.602-1.258
		C631.53,307.576,629.986,308.72,629.986,311.007z"/>
	<path fill="#FFFFFF" d="M650.338,317.067c2.116-3.602,5.604-5.603,10.006-5.66v8.919c-5.718-0.515-9.491,2.173-10.006,6.519v15.837
		h-9.891v-30.817h9.891V317.067z"/>
	<path fill="#FFFFFF" d="M675.036,303.002c0,3.087-2.173,5.26-5.203,5.26s-5.202-2.173-5.202-5.26c0-3.03,2.172-5.203,5.202-5.203
		S675.036,299.972,675.036,303.002z M664.859,342.682v-30.817h9.834v30.817H664.859z"/>
	<path fill="#FFFFFF" d="M711.685,329.932h-21.67c0.973,3.659,3.603,5.718,7.262,5.718c2.687,0,5.317-1.087,7.375-3.145l5.203,5.088
		c-3.145,3.431-7.775,5.432-13.436,5.432c-10.063,0-16.353-6.289-16.353-15.666c0-9.548,6.518-15.837,16.066-15.837
		C706.996,311.521,712.37,318.668,711.685,329.932z M702.193,324.614c0-3.773-2.401-6.232-5.946-6.232
		c-3.431,0-5.774,2.516-6.403,6.232H702.193z"/>
	<path fill="#FFFFFF" d="M748.503,323.242v19.439h-9.835v-16.695c0-3.602-2.115-5.832-5.432-5.832c-3.602,0-5.889,2.573-6.289,6.232
		v16.295h-9.891v-30.817h9.891v5.032c2.173-3.602,5.718-5.432,10.292-5.489C744.043,311.407,748.503,316.038,748.503,323.242z"/>
	<path fill="#FFFFFF" d="M786.579,342.682h-9.892v-4.06c-2.173,2.859-5.317,4.46-9.263,4.46c-8.69,0-14.407-6.403-14.407-15.952
		c0-9.434,5.66-15.666,14.179-15.666c4.06,0,7.318,1.601,9.491,4.459v-15.666h9.892V342.682z M776.688,327.358
		c0-4.745-2.744-8.004-6.861-8.004c-4.116,0-6.86,3.259-6.918,8.004c0.058,4.746,2.802,8.062,6.918,8.062
		C773.943,335.421,776.688,332.104,776.688,327.358z"/>
	<path fill="#FFFFFF" d="M795.038,342.682v-42.424h9.892v42.424H795.038z"/>
	<path fill="#FFFFFF" d="M829.399,345.884c-2.287,5.603-6.175,8.347-11.893,8.347c-3.431,0-6.232-1.028-8.977-3.145l4.116-6.746
		c1.43,1.144,2.631,1.658,4.06,1.658c1.772,0,3.03-0.801,3.831-2.459l0.743-1.544l-12.808-30.131h10.178l7.547,20.469l6.689-20.469
		h9.834L829.399,345.884z"/>
	<path fill="#FFFFFF" d="M224.012,380.415v19.439h-9.892v-16.695c0-3.602-2.058-5.831-5.432-5.831c-3.888,0-6.289,3.087-6.289,7.318
		v15.208h-9.892v-42.424h9.892v16.695c2.173-3.659,5.774-5.489,10.349-5.546C219.552,368.58,224.012,373.211,224.012,380.415z"/>
	<path fill="#FFFFFF" d="M262.088,384.417c0,9.491-6.746,15.78-16.81,15.78c-10.119,0-16.866-6.289-16.866-15.78
		c0-9.49,6.747-15.723,16.866-15.723C255.342,368.694,262.088,374.927,262.088,384.417z M238.36,384.531
		c0,4.803,2.802,8.005,6.918,8.005c4.06,0,6.861-3.202,6.861-8.005c0-4.745-2.802-8.004-6.861-8.004
		C241.162,376.527,238.36,379.786,238.36,384.531z"/>
	<path fill="#FFFFFF" d="M319.661,380.415v19.439h-9.834v-16.695c0-3.659-2.059-5.889-5.317-5.889
		c-3.717,0.114-6.004,3.145-6.004,7.318v15.266h-9.891v-16.695c0-3.659-2.002-5.889-5.261-5.889
		c-3.773,0.114-6.117,3.145-6.117,7.318v15.266h-9.834v-30.817h9.834v5.089c2.115-3.659,5.66-5.489,10.177-5.546
		c5.031,0,8.748,2.63,10.292,6.976c2.001-4.574,5.774-6.919,10.862-6.976C315.315,368.58,319.661,373.211,319.661,380.415z"/>
	<path fill="#FFFFFF" d="M355.735,387.104h-21.67c0.973,3.659,3.603,5.718,7.262,5.718c2.687,0,5.317-1.087,7.375-3.145l5.203,5.088
		c-3.145,3.431-7.775,5.432-13.436,5.432c-10.063,0-16.353-6.289-16.353-15.666c0-9.548,6.518-15.837,16.066-15.837
		C351.047,368.694,356.421,375.841,355.735,387.104z M346.244,381.787c0-3.773-2.401-6.231-5.946-6.231
		c-3.431,0-5.774,2.516-6.403,6.231H346.244z"/>
	<path fill="#FFFFFF" d="M401.529,375.612l-7.09,4.288c-1.43-2.001-3.545-3.201-6.232-3.201c-3.831,0-6.461,3.145-6.461,7.775
		c0,4.745,2.63,7.833,6.461,7.833c2.802,0,4.975-1.144,6.289-3.488l7.204,4.231c-2.516,4.517-7.489,7.146-14.008,7.146
		c-9.491,0-15.895-6.289-15.895-15.666c0-9.49,6.461-15.837,16.009-15.837C393.925,368.694,398.842,371.21,401.529,375.612z"/>
	<path fill="#FFFFFF" d="M433.203,379.729v20.126h-9.663v-3.545c-2.001,2.63-5.26,4.002-9.434,4.002
		c-6.575,0-10.577-4.002-10.577-9.662c0-5.832,4.174-9.263,11.835-9.319h8.119v-0.458c0-3.03-2.002-4.859-6.004-4.859
		c-2.572,0-5.946,0.915-9.205,2.573l-2.802-6.519c4.803-2.229,9.148-3.487,14.294-3.487
		C428.229,368.58,433.146,372.754,433.203,379.729z M423.483,389.392v-2.744h-6.232c-2.973,0-4.46,1.029-4.46,3.315
		c0,2.23,1.602,3.659,4.346,3.659C420.224,393.622,422.854,391.907,423.483,389.392z"/>
	<path fill="#FFFFFF" d="M450.124,374.24c2.116-3.602,5.604-5.604,10.006-5.66v8.919c-5.718-0.515-9.491,2.173-10.006,6.519v15.837
		h-9.891v-30.817h9.891V374.24z"/>
	<path fill="#FFFFFF" d="M493.69,387.104h-21.67c0.973,3.659,3.603,5.718,7.262,5.718c2.687,0,5.317-1.087,7.375-3.145l5.203,5.088
		c-3.145,3.431-7.775,5.432-13.436,5.432c-10.063,0-16.353-6.289-16.353-15.666c0-9.548,6.518-15.837,16.066-15.837
		C489.002,368.694,494.376,375.841,493.69,387.104z M484.199,381.787c0-3.773-2.401-6.231-5.946-6.231
		c-3.431,0-5.774,2.516-6.403,6.231H484.199z"/>
	<path fill="#FFFFFF" d="M546.173,384.589c0,9.377-5.603,15.608-14.236,15.608c-4.002,0-7.261-1.601-9.434-4.459v15.208h-9.892
		v-41.909h9.892v4.06c2.173-2.802,5.317-4.402,9.205-4.402C540.398,368.694,546.173,375.041,546.173,384.589z M536.225,384.303
		c0-4.688-2.801-8.004-6.918-8.004c-4.002,0-6.804,3.315-6.804,8.004c0,4.803,2.802,8.062,6.804,8.062
		C533.424,392.364,536.225,389.049,536.225,384.303z"/>
	<path fill="#FFFFFF" d="M561.38,374.24c2.116-3.602,5.604-5.604,10.006-5.66v8.919c-5.718-0.515-9.491,2.173-10.006,6.519v15.837
		h-9.891v-30.817h9.891V374.24z"/>
	<path fill="#FFFFFF" d="M607.003,384.417c0,9.491-6.746,15.78-16.81,15.78c-10.119,0-16.866-6.289-16.866-15.78
		c0-9.49,6.747-15.723,16.866-15.723C600.257,368.694,607.003,374.927,607.003,384.417z M583.275,384.531
		c0,4.803,2.802,8.005,6.918,8.005c4.06,0,6.861-3.202,6.861-8.005c0-4.745-2.802-8.004-6.861-8.004
		C586.077,376.527,583.275,379.786,583.275,384.531z"/>
	<path fill="#FFFFFF" d="M643.365,399.854h-9.892v-4.06c-2.173,2.859-5.317,4.46-9.263,4.46c-8.69,0-14.407-6.403-14.407-15.952
		c0-9.434,5.66-15.666,14.179-15.666c4.06,0,7.318,1.602,9.491,4.46v-15.666h9.892V399.854z M633.474,384.531
		c0-4.745-2.744-8.004-6.861-8.004c-4.116,0-6.86,3.259-6.918,8.004c0.058,4.746,2.802,8.062,6.918,8.062
		C630.729,392.594,633.474,389.277,633.474,384.531z"/>
	<path fill="#FFFFFF" d="M681.556,399.854h-9.892v-5.089c-2.115,3.659-5.546,5.489-10.005,5.489
		c-6.689,0-11.035-4.574-11.035-11.778v-19.439h9.892v16.638c0,3.659,2.001,5.89,5.146,5.89c3.773-0.058,6.003-3.145,6.003-7.318
		v-15.209h9.892V399.854z"/>
	<path fill="#FFFFFF" d="M716.602,375.612l-7.09,4.288c-1.43-2.001-3.545-3.201-6.232-3.201c-3.831,0-6.461,3.145-6.461,7.775
		c0,4.745,2.63,7.833,6.461,7.833c2.802,0,4.975-1.144,6.289-3.488l7.204,4.231c-2.516,4.517-7.489,7.146-14.008,7.146
		c-9.491,0-15.895-6.289-15.895-15.666c0-9.49,6.461-15.837,16.009-15.837C708.997,368.694,713.914,371.21,716.602,375.612z"/>
	<path fill="#FFFFFF" d="M741.471,398.196c-2.229,1.315-5.26,2.115-8.233,2.115c-5.946,0-10.234-3.373-10.234-9.776v-13.607h-4.288
		v-6.461h4.288v-8.576h9.834v8.519h8.062v6.519h-8.062v12.063c0,2.401,1.029,3.431,2.859,3.373c1.029,0,2.344-0.399,3.83-1.028
		L741.471,398.196z"/>
	<path fill="#FFFFFF" d="M770.172,372.067l-3.374,6.403c-3.716-2.001-7.146-3.087-9.72-3.087c-1.771,0-3.03,0.687-3.03,2.115
		c0,4.231,16.238,2.173,16.181,12.922c0,6.346-5.546,9.834-12.979,9.834c-5.146,0-10.12-1.486-13.836-4.346l3.145-6.289
		c3.487,2.459,7.489,3.831,10.92,3.831c1.944,0,3.374-0.687,3.374-2.115c0-4.518-15.952-2.173-15.895-12.979
		c0-6.346,5.374-9.776,12.521-9.776C761.938,368.58,766.398,369.838,770.172,372.067z"/>
</g>
<polygon fill="#66CC66" points="301.432,218 480,122.211 658.568,218 736.865,218 480,80.211 223.135,218 "/>
<g>
	<path fill="#66CC66" d="M480.193,508.729c-58.833,0-110.354-26.94-138.824-67.271C360.714,494.645,415.554,533,480.193,533
		c64.638,0,119.478-38.355,138.823-91.542C590.547,481.789,539.025,508.729,480.193,508.729z"/>
	<circle fill="#66CC66" cx="341" cy="441" r="18"/>
	<circle fill="#66CC66" cx="619" cy="441" r="18"/>
</g>
</svg>
