<?xml version="1.0" encoding="utf-8"?>
<!-- Generator: Adobe Illustrator 16.0.0, SVG Export Plug-In . SVG Version: 6.00 Build 0)  -->
<!DOCTYPE svg PUBLIC "-//W3C//DTD SVG 1.1//EN" "http://www.w3.org/Graphics/SVG/1.1/DTD/svg11.dtd">
<svg version="1.1" id="Layer_1" xmlns="http://www.w3.org/2000/svg" xmlns:xlink="http://www.w3.org/1999/xlink" x="0px" y="0px"
	 width="481.74px" height="110.351px" viewBox="0 0 481.74 110.351" enable-background="new 0 0 481.74 110.351"
	 xml:space="preserve">
<g>
	<g>
		<g>
			<g>
				<path fill="#231F20" d="M284.5,34.232c-19.438,0-35.198,16.41-35.198,36.71c0,20.288,15.761,36.732,35.198,36.732
					c19.419,0,35.161-16.444,35.161-36.732C319.662,50.643,303.919,34.232,284.5,34.232z M284.5,93.868
					c-11.796,0-21.399-10.264-21.399-22.926c0-12.659,9.604-22.94,21.399-22.94c11.761,0,21.362,10.281,21.362,22.94
					C305.863,83.604,296.261,93.868,284.5,93.868z"/>
				<path fill="#231F20" d="M178.674,34.232c-6.14,0-11.894,1.659-16.896,4.519v18.18c3.906-5.436,10.026-8.929,16.896-8.929
					c11.796,0,21.4,10.281,21.4,22.94c0,12.662-9.604,22.926-21.4,22.926c-11.816,0-21.4-10.264-21.4-22.926V2.676h-13.76v68.372
					c0.039,20.207,15.781,36.604,35.161,36.604c19.417,0,35.198-16.421,35.198-36.709C213.872,50.643,198.091,34.232,178.674,34.232
					z"/>
				<path fill="#231F20" d="M32.104,34.232c-5.582,0-10.796,1.659-15.204,4.484V2.676H3.122v61.775v43.224H16.9V64.451
					c0-9.016,6.793-16.449,15.204-16.449c8.333,0,15.166,7.317,15.203,16.357v0.135v43.181h13.76V64.494c0,0,0,0,0-0.043
					C61.067,47.785,48.098,34.232,32.104,34.232z"/>
				<path fill="#231F20" d="M252.439,34.458c-1.193-0.174-2.426-0.226-3.656-0.226c-16.013,0-28.983,13.553-28.983,30.219v43.224
					h13.76V64.451c0-9.016,6.851-16.449,15.224-16.449c1.269,0,2.482,0.178,3.656,0.51V34.458z"/>
				<path fill="#231F20" d="M102.329,34.232c-19.418,0-35.161,16.41-35.161,36.71c0,20.288,15.743,36.709,35.161,36.709
					c6.12,0,11.893-1.663,16.916-4.522V84.967c-3.926,5.418-10.026,8.901-16.916,8.901c-11.797,0-21.4-10.264-21.4-22.926
					c0-12.659,9.604-22.94,21.4-22.94s21.4,10.281,21.4,22.94v36.732h13.76V70.817C137.451,50.614,121.728,34.232,102.329,34.232z"
					/>
			</g>
			<g>
				<path fill="#D1AA67" d="M93.015,13.477c-3.869,0-7.005,3.146-7.005,7.024c0,3.873,3.136,7.02,7.005,7.02
					c3.907,0,7.044-3.146,7.044-7.02C100.059,16.623,96.921,13.477,93.015,13.477z"/>
				<path fill="#D1AA67" d="M111.644,13.477c-3.887,0-7.025,3.146-7.025,7.024c0,3.873,3.138,7.02,7.025,7.02
					c3.886,0,7.004-3.146,7.004-7.02C118.648,16.623,115.53,13.477,111.644,13.477z"/>
			</g>
		</g>
		<g>
			<path fill="#D1AA67" d="M369.34,75.774v31.634h-6.284V75.774h-11.771v-5.646h29.878v5.646H369.34z"/>
			<path fill="#D1AA67" d="M417.767,88.769c0,10.651-8.628,18.906-19.758,18.906c-11.131,0-19.759-8.255-19.759-18.906
				c0-10.704,8.628-18.799,19.759-18.799C409.139,69.97,417.767,78.118,417.767,88.769z M384.642,88.769
				c0,7.403,6.124,13.261,13.42,13.261c7.297,0,13.261-5.857,13.261-13.261c0-7.401-5.964-13.153-13.261-13.153
				C390.713,75.615,384.642,81.367,384.642,88.769z"/>
			<path fill="#D1AA67" d="M436.225,96.119c-0.532,0.053-1.119,0.053-1.704,0.053h-8.841v11.236h-6.284V70.129h15.125
				c9.532,0,15.019,4.634,15.019,12.729c0,5.966-2.769,10.172-7.723,12.09l8.362,12.461h-7.138L436.225,96.119z M434.521,90.526
				c5.752,0,9.054-2.45,9.054-7.509c0-4.899-3.302-7.243-9.054-7.243h-8.841v14.752H434.521z"/>
			<path fill="#D1AA67" d="M457.895,75.774V85.84h18.214v5.646h-18.214v10.278h20.983v5.645h-27.268V70.129h26.629v5.646H457.895z"
				/>
			<path fill="#D1AA67" d="M332.152,79.662c0-2.503,2.417-3.888,6.092-3.888c2.74,0,6.585,0.958,10.585,3.255v-6.962
				c-3-1.361-6.529-2.205-10.105-2.205c-8.096,0-13.592,3.994-13.592,10.385c0,13.261,20.127,8.627,20.127,16.935
				c0,2.877-2.261,4.527-6.628,4.527c-3.833,0-8.802-1.771-11.802-5.019v7.434c2,2.151,7.305,3.496,11.693,3.496
				c8.201,0,13.883-4.101,13.883-10.757C352.459,83.444,332.152,87.811,332.152,79.662z"/>
		</g>
	</g>
</g>
</svg>
